<mxfile host="app.diagrams.net" modified="2023-10-18T10:53:45.251Z" agent="Mozilla/5.0 (Windows NT 10.0; Win64; x64) AppleWebKit/537.36 (KHTML, like Gecko) Chrome/118.0.0.0 Safari/537.36 Edg/118.0.2088.46" etag="94IkSpWk7a5usWTgLOPh" version="22.0.4" type="github">
  <diagram name="Page-1" id="tviY1Z1fm9ki53SMdwC4">
    <mxGraphModel dx="872" dy="473" grid="1" gridSize="10" guides="1" tooltips="1" connect="1" arrows="1" fold="1" page="1" pageScale="1" pageWidth="827" pageHeight="1169" math="0" shadow="0">
      <root>
        <mxCell id="0" />
        <mxCell id="1" parent="0" />
        <object placeholders="1" c4Name="Anonymous User" c4Type="Person" c4Description="A user not logged in or registered" label="&lt;font style=&quot;font-size: 16px&quot;&gt;&lt;b&gt;%c4Name%&lt;/b&gt;&lt;/font&gt;&lt;div&gt;[%c4Type%]&lt;/div&gt;&lt;br&gt;&lt;div&gt;&lt;font style=&quot;font-size: 11px&quot;&gt;&lt;font color=&quot;#cccccc&quot;&gt;%c4Description%&lt;/font&gt;&lt;/div&gt;" id="MyfmQ-cPh34wAgXyCGul-1">
          <mxCell style="html=1;fontSize=11;dashed=0;whiteSpace=wrap;fillColor=#083F75;strokeColor=#06315C;fontColor=#ffffff;shape=mxgraph.c4.person2;align=center;metaEdit=1;points=[[0.5,0,0],[1,0.5,0],[1,0.75,0],[0.75,1,0],[0.5,1,0],[0.25,1,0],[0,0.75,0],[0,0.5,0]];resizable=0;" parent="1" vertex="1">
            <mxGeometry x="10" y="40" width="200" height="180" as="geometry" />
          </mxCell>
        </object>
        <object placeholders="1" c4Name="Registered User" c4Type="Person" c4Description="A registered authenticated user" label="&lt;font style=&quot;font-size: 16px&quot;&gt;&lt;b&gt;%c4Name%&lt;/b&gt;&lt;/font&gt;&lt;div&gt;[%c4Type%]&lt;/div&gt;&lt;br&gt;&lt;div&gt;&lt;font style=&quot;font-size: 11px&quot;&gt;&lt;font color=&quot;#cccccc&quot;&gt;%c4Description%&lt;/font&gt;&lt;/div&gt;" id="MyfmQ-cPh34wAgXyCGul-2">
          <mxCell style="html=1;fontSize=11;dashed=0;whiteSpace=wrap;fillColor=#083F75;strokeColor=#06315C;fontColor=#ffffff;shape=mxgraph.c4.person2;align=center;metaEdit=1;points=[[0.5,0,0],[1,0.5,0],[1,0.75,0],[0.75,1,0],[0.5,1,0],[0.25,1,0],[0,0.75,0],[0,0.5,0]];resizable=0;" parent="1" vertex="1">
            <mxGeometry x="230" y="50" width="200" height="180" as="geometry" />
          </mxCell>
        </object>
        <object placeholders="1" c4Name="Staff" c4Type="Person" c4Description="A ThAmCo member of staff" label="&lt;font style=&quot;font-size: 16px&quot;&gt;&lt;b&gt;%c4Name%&lt;/b&gt;&lt;/font&gt;&lt;div&gt;[%c4Type%]&lt;/div&gt;&lt;br&gt;&lt;div&gt;&lt;font style=&quot;font-size: 11px&quot;&gt;&lt;font color=&quot;#cccccc&quot;&gt;%c4Description%&lt;/font&gt;&lt;/div&gt;" id="MyfmQ-cPh34wAgXyCGul-3">
          <mxCell style="html=1;fontSize=11;dashed=0;whiteSpace=wrap;fillColor=#083F75;strokeColor=#06315C;fontColor=#ffffff;shape=mxgraph.c4.person2;align=center;metaEdit=1;points=[[0.5,0,0],[1,0.5,0],[1,0.75,0],[0.75,1,0],[0.5,1,0],[0.25,1,0],[0,0.75,0],[0,0.5,0]];resizable=0;" parent="1" vertex="1">
            <mxGeometry x="470" y="50" width="200" height="180" as="geometry" />
          </mxCell>
        </object>
        <object placeholders="1" c4Name="Email Service" c4Type="External System" c4Description="Sends email from the system system." label="&lt;font style=&quot;font-size: 16px&quot;&gt;&lt;b&gt;%c4Name%&lt;/b&gt;&lt;/font&gt;&lt;div&gt;[%c4Type%]&lt;/div&gt;&lt;br&gt;&lt;div&gt;&lt;font style=&quot;font-size: 11px&quot;&gt;&lt;font color=&quot;#cccccc&quot;&gt;%c4Description%&lt;/font&gt;&lt;/div&gt;" id="MyfmQ-cPh34wAgXyCGul-5">
          <mxCell style="rounded=1;whiteSpace=wrap;html=1;labelBackgroundColor=none;fillColor=#8C8496;fontColor=#ffffff;align=center;arcSize=10;strokeColor=#736782;metaEdit=1;resizable=0;points=[[0.25,0,0],[0.5,0,0],[0.75,0,0],[1,0.25,0],[1,0.5,0],[1,0.75,0],[0.75,1,0],[0.5,1,0],[0.25,1,0],[0,0.75,0],[0,0.5,0],[0,0.25,0]];" parent="1" vertex="1">
            <mxGeometry x="530" y="410" width="240" height="120" as="geometry" />
          </mxCell>
        </object>
        <object placeholders="1" c4Name="ThAmCo Auth Server" c4Type="External System" c4Description="Authenticate a company entity and its attributes" label="&lt;font style=&quot;font-size: 16px&quot;&gt;&lt;b&gt;%c4Name%&lt;/b&gt;&lt;/font&gt;&lt;div&gt;[%c4Type%]&lt;/div&gt;&lt;br&gt;&lt;div&gt;&lt;font style=&quot;font-size: 11px&quot;&gt;&lt;font color=&quot;#cccccc&quot;&gt;%c4Description%&lt;/font&gt;&lt;/div&gt;" id="MyfmQ-cPh34wAgXyCGul-6">
          <mxCell style="rounded=1;whiteSpace=wrap;html=1;labelBackgroundColor=none;fillColor=#8C8496;fontColor=#ffffff;align=center;arcSize=10;strokeColor=#736782;metaEdit=1;resizable=0;points=[[0.25,0,0],[0.5,0,0],[0.75,0,0],[1,0.25,0],[1,0.5,0],[1,0.75,0],[0.75,1,0],[0.5,1,0],[0.25,1,0],[0,0.75,0],[0,0.5,0],[0,0.25,0]];" parent="1" vertex="1">
            <mxGeometry x="530" y="650" width="240" height="120" as="geometry" />
          </mxCell>
        </object>
        <object placeholders="1" c4Name="ThAmCo" c4Type="Software System" c4Description="Buy and sell products" label="&lt;font style=&quot;font-size: 16px&quot;&gt;&lt;b&gt;%c4Name%&lt;/b&gt;&lt;/font&gt;&lt;div&gt;[%c4Type%]&lt;/div&gt;&lt;br&gt;&lt;div&gt;&lt;font style=&quot;font-size: 11px&quot;&gt;&lt;font color=&quot;#cccccc&quot;&gt;%c4Description%&lt;/font&gt;&lt;/div&gt;" id="MyfmQ-cPh34wAgXyCGul-8">
          <mxCell style="rounded=1;whiteSpace=wrap;html=1;labelBackgroundColor=none;fillColor=#1061B0;fontColor=#ffffff;align=center;arcSize=10;strokeColor=#0D5091;metaEdit=1;resizable=0;points=[[0.25,0,0],[0.5,0,0],[0.75,0,0],[1,0.25,0],[1,0.5,0],[1,0.75,0],[0.75,1,0],[0.5,1,0],[0.25,1,0],[0,0.75,0],[0,0.5,0],[0,0.25,0]];" parent="1" vertex="1">
            <mxGeometry x="150" y="560" width="240" height="120" as="geometry" />
          </mxCell>
        </object>
        <object placeholders="1" c4Type="Relationship" c4Technology="IMAP/POP3" c4Description="Sends order status to Registered user" label="&lt;div style=&quot;text-align: left&quot;&gt;&lt;div style=&quot;text-align: center&quot;&gt;&lt;b&gt;%c4Description%&lt;/b&gt;&lt;/div&gt;&lt;div style=&quot;text-align: center&quot;&gt;[%c4Technology%]&lt;/div&gt;&lt;/div&gt;" id="MyfmQ-cPh34wAgXyCGul-18">
          <mxCell style="endArrow=blockThin;html=1;fontSize=10;fontColor=#404040;strokeWidth=1;endFill=1;strokeColor=#828282;elbow=vertical;metaEdit=1;endSize=14;startSize=14;jumpStyle=arc;jumpSize=16;rounded=0;edgeStyle=orthogonalEdgeStyle;exitX=0.75;exitY=0;exitDx=0;exitDy=0;exitPerimeter=0;entryX=0.5;entryY=0;entryDx=0;entryDy=0;entryPerimeter=0;" parent="1" source="MyfmQ-cPh34wAgXyCGul-5" target="MyfmQ-cPh34wAgXyCGul-2" edge="1">
            <mxGeometry width="240" relative="1" as="geometry">
              <mxPoint x="680" y="250" as="sourcePoint" />
              <mxPoint x="920" y="250" as="targetPoint" />
              <Array as="points">
                <mxPoint x="740" y="20" />
                <mxPoint x="330" y="20" />
              </Array>
              <mxPoint as="offset" />
            </mxGeometry>
          </mxCell>
        </object>
        <object placeholders="1" c4Type="Relationship" c4Technology="SMTP/POP3" c4Description="sends email using" label="&lt;div style=&quot;text-align: left&quot;&gt;&lt;div style=&quot;text-align: center&quot;&gt;&lt;b&gt;%c4Description%&lt;/b&gt;&lt;/div&gt;&lt;div style=&quot;text-align: center&quot;&gt;[%c4Technology%]&lt;/div&gt;&lt;/div&gt;" id="MyfmQ-cPh34wAgXyCGul-19">
          <mxCell style="endArrow=blockThin;html=1;fontSize=10;fontColor=#404040;strokeWidth=1;endFill=1;strokeColor=#828282;elbow=vertical;metaEdit=1;endSize=14;startSize=14;jumpStyle=arc;jumpSize=16;rounded=0;edgeStyle=orthogonalEdgeStyle;entryX=0;entryY=0.5;entryDx=0;entryDy=0;entryPerimeter=0;exitX=1;exitY=0.5;exitDx=0;exitDy=0;exitPerimeter=0;" parent="1" source="MyfmQ-cPh34wAgXyCGul-8" target="MyfmQ-cPh34wAgXyCGul-5" edge="1">
            <mxGeometry width="240" relative="1" as="geometry">
              <mxPoint x="310" y="300" as="sourcePoint" />
              <mxPoint x="550" y="300" as="targetPoint" />
            </mxGeometry>
          </mxCell>
        </object>
        <object placeholders="1" c4Type="Relationship" c4Technology="HTTPS/HTML" c4Description="Browse, filter and search products. &#xa;Register" label="&lt;div style=&quot;text-align: left&quot;&gt;&lt;div style=&quot;text-align: center&quot;&gt;&lt;b&gt;%c4Description%&lt;/b&gt;&lt;/div&gt;&lt;div style=&quot;text-align: center&quot;&gt;[%c4Technology%]&lt;/div&gt;&lt;/div&gt;" id="efkTvhl1xySFwHVernkE-2">
          <mxCell style="endArrow=blockThin;html=1;fontSize=10;fontColor=#404040;strokeWidth=1;endFill=1;strokeColor=#828282;elbow=vertical;metaEdit=1;endSize=14;startSize=14;jumpStyle=arc;jumpSize=16;rounded=0;edgeStyle=orthogonalEdgeStyle;entryX=0.25;entryY=0;entryDx=0;entryDy=0;entryPerimeter=0;exitX=0.5;exitY=1;exitDx=0;exitDy=0;exitPerimeter=0;" parent="1" source="MyfmQ-cPh34wAgXyCGul-1" target="MyfmQ-cPh34wAgXyCGul-8" edge="1">
            <mxGeometry x="-0.68" width="240" relative="1" as="geometry">
              <mxPoint x="80" y="250" as="sourcePoint" />
              <mxPoint x="320" y="250" as="targetPoint" />
              <mxPoint as="offset" />
            </mxGeometry>
          </mxCell>
        </object>
        <object placeholders="1" c4Type="Relationship" c4Technology="HTTPS/HTML" c4Description="Manage user account. &#xa;Browse product stock, order products" label="&lt;div style=&quot;text-align: left&quot;&gt;&lt;div style=&quot;text-align: center&quot;&gt;&lt;b&gt;%c4Description%&lt;/b&gt;&lt;/div&gt;&lt;div style=&quot;text-align: center&quot;&gt;[%c4Technology%]&lt;/div&gt;&lt;/div&gt;" id="efkTvhl1xySFwHVernkE-4">
          <mxCell style="endArrow=blockThin;html=1;fontSize=10;fontColor=#404040;strokeWidth=1;endFill=1;strokeColor=#828282;elbow=vertical;metaEdit=1;endSize=14;startSize=14;jumpStyle=arc;jumpSize=16;rounded=0;edgeStyle=orthogonalEdgeStyle;exitX=0.25;exitY=1;exitDx=0;exitDy=0;exitPerimeter=0;entryX=0.5;entryY=0;entryDx=0;entryDy=0;entryPerimeter=0;" parent="1" source="MyfmQ-cPh34wAgXyCGul-2" target="MyfmQ-cPh34wAgXyCGul-8" edge="1">
            <mxGeometry x="-0.4667" y="20" width="240" relative="1" as="geometry">
              <mxPoint x="290" y="290" as="sourcePoint" />
              <mxPoint x="530" y="290" as="targetPoint" />
              <mxPoint as="offset" />
            </mxGeometry>
          </mxCell>
        </object>
        <object placeholders="1" c4Type="Relationship" c4Technology="HTTPS/HTML" c4Description="View orders and mark them as dispatched. &#xa;View user profiles, funds and order history. &#xa;Delete personal user data" label="&lt;div style=&quot;text-align: left&quot;&gt;&lt;div style=&quot;text-align: center&quot;&gt;&lt;b&gt;%c4Description%&lt;/b&gt;&lt;/div&gt;&lt;div style=&quot;text-align: center&quot;&gt;[%c4Technology%]&lt;/div&gt;&lt;/div&gt;" id="efkTvhl1xySFwHVernkE-5">
          <mxCell style="endArrow=blockThin;html=1;fontSize=10;fontColor=#404040;strokeWidth=1;endFill=1;strokeColor=#828282;elbow=vertical;metaEdit=1;endSize=14;startSize=14;jumpStyle=arc;jumpSize=16;rounded=0;edgeStyle=orthogonalEdgeStyle;exitX=0.5;exitY=1;exitDx=0;exitDy=0;exitPerimeter=0;entryX=0.75;entryY=0;entryDx=0;entryDy=0;entryPerimeter=0;" parent="1" source="MyfmQ-cPh34wAgXyCGul-3" target="MyfmQ-cPh34wAgXyCGul-8" edge="1">
            <mxGeometry x="-0.6316" width="240" relative="1" as="geometry">
              <mxPoint x="460" y="260" as="sourcePoint" />
              <mxPoint x="700" y="260" as="targetPoint" />
              <mxPoint as="offset" />
            </mxGeometry>
          </mxCell>
        </object>
        <object placeholders="1" c4Type="Relationship" c4Technology="JSON/HTTPS" c4Description="Sends order to product supplier&#xa;and receives products" label="&lt;div style=&quot;text-align: left&quot;&gt;&lt;div style=&quot;text-align: center&quot;&gt;&lt;b&gt;%c4Description%&lt;/b&gt;&lt;/div&gt;&lt;div style=&quot;text-align: center&quot;&gt;[%c4Technology%]&lt;/div&gt;&lt;/div&gt;" id="efkTvhl1xySFwHVernkE-6">
          <mxCell style="endArrow=blockThin;html=1;fontSize=10;fontColor=#404040;strokeWidth=1;endFill=1;strokeColor=#828282;elbow=vertical;metaEdit=1;endSize=14;startSize=14;jumpStyle=arc;jumpSize=16;rounded=0;edgeStyle=orthogonalEdgeStyle;exitX=0.75;exitY=1;exitDx=0;exitDy=0;exitPerimeter=0;entryX=0;entryY=0.25;entryDx=0;entryDy=0;entryPerimeter=0;" parent="1" source="MyfmQ-cPh34wAgXyCGul-8" target="HtmXsRd4tKLRVdlfnEMc-1" edge="1">
            <mxGeometry x="-0.2128" width="240" relative="1" as="geometry">
              <mxPoint x="320" y="630" as="sourcePoint" />
              <mxPoint x="410" y="950" as="targetPoint" />
              <Array as="points">
                <mxPoint x="330" y="815" />
                <mxPoint x="440" y="815" />
                <mxPoint x="440" y="890" />
                <mxPoint x="510" y="890" />
                <mxPoint x="510" y="830" />
              </Array>
              <mxPoint x="1" as="offset" />
            </mxGeometry>
          </mxCell>
        </object>
        <object placeholders="1" c4Name="Product Supplier" c4Type="External System" c4Description="A third-party product supplier" label="&lt;font style=&quot;font-size: 16px&quot;&gt;&lt;b&gt;%c4Name%&lt;/b&gt;&lt;/font&gt;&lt;div&gt;[%c4Type%]&lt;/div&gt;&lt;br&gt;&lt;div&gt;&lt;font style=&quot;font-size: 11px&quot;&gt;&lt;font color=&quot;#cccccc&quot;&gt;%c4Description%&lt;/font&gt;&lt;/div&gt;" id="HtmXsRd4tKLRVdlfnEMc-1">
          <mxCell style="rounded=1;whiteSpace=wrap;html=1;labelBackgroundColor=none;fillColor=#8C8496;fontColor=#ffffff;align=center;arcSize=10;strokeColor=#736782;metaEdit=1;resizable=0;points=[[0.25,0,0],[0.5,0,0],[0.75,0,0],[1,0.25,0],[1,0.5,0],[1,0.75,0],[0.75,1,0],[0.5,1,0],[0.25,1,0],[0,0.75,0],[0,0.5,0],[0,0.25,0]];" parent="1" vertex="1">
            <mxGeometry x="530" y="800" width="240" height="120" as="geometry" />
          </mxCell>
        </object>
        <object placeholders="1" c4Type="Relationship" c4Technology="OIDC or OAuth2" c4Description="Authenticate HTTPS calls via" label="&lt;div style=&quot;text-align: left&quot;&gt;&lt;div style=&quot;text-align: center&quot;&gt;&lt;b&gt;%c4Description%&lt;/b&gt;&lt;/div&gt;&lt;div style=&quot;text-align: center&quot;&gt;[%c4Technology%]&lt;/div&gt;&lt;/div&gt;" id="HtmXsRd4tKLRVdlfnEMc-4">
          <mxCell style="endArrow=blockThin;html=1;fontSize=10;fontColor=#404040;strokeWidth=1;endFill=1;strokeColor=#828282;elbow=vertical;metaEdit=1;endSize=14;startSize=14;jumpStyle=arc;jumpSize=16;rounded=0;edgeStyle=orthogonalEdgeStyle;entryX=1;entryY=0.75;entryDx=0;entryDy=0;entryPerimeter=0;exitX=0;exitY=0.5;exitDx=0;exitDy=0;exitPerimeter=0;" parent="1" source="MyfmQ-cPh34wAgXyCGul-6" target="MyfmQ-cPh34wAgXyCGul-8" edge="1">
            <mxGeometry width="240" relative="1" as="geometry">
              <mxPoint x="260" y="730" as="sourcePoint" />
              <mxPoint x="500" y="730" as="targetPoint" />
            </mxGeometry>
          </mxCell>
        </object>
        <object placeholders="1" c4Name="Payment gateway" c4Type="External System" c4Description="A third-party payment gateway" label="&lt;font style=&quot;font-size: 16px&quot;&gt;&lt;b&gt;%c4Name%&lt;/b&gt;&lt;/font&gt;&lt;div&gt;[%c4Type%]&lt;/div&gt;&lt;br&gt;&lt;div&gt;&lt;font style=&quot;font-size: 11px&quot;&gt;&lt;font color=&quot;#cccccc&quot;&gt;%c4Description%&lt;/font&gt;&lt;/div&gt;" id="fa-pe0VchiflVmFY7Sj_-2">
          <mxCell style="rounded=1;whiteSpace=wrap;html=1;labelBackgroundColor=none;fillColor=#8C8496;fontColor=#ffffff;align=center;arcSize=10;strokeColor=#736782;metaEdit=1;resizable=0;points=[[0.25,0,0],[0.5,0,0],[0.75,0,0],[1,0.25,0],[1,0.5,0],[1,0.75,0],[0.75,1,0],[0.5,1,0],[0.25,1,0],[0,0.75,0],[0,0.5,0],[0,0.25,0]];" vertex="1" parent="1">
            <mxGeometry x="530" y="970" width="240" height="120" as="geometry" />
          </mxCell>
        </object>
        <object placeholders="1" c4Type="Relationship" c4Technology="HTTPS/HTML" c4Description="Users update account balance" label="&lt;div style=&quot;text-align: left&quot;&gt;&lt;div style=&quot;text-align: center&quot;&gt;&lt;b&gt;%c4Description%&lt;/b&gt;&lt;/div&gt;&lt;div style=&quot;text-align: center&quot;&gt;[%c4Technology%]&lt;/div&gt;&lt;/div&gt;" id="fa-pe0VchiflVmFY7Sj_-3">
          <mxCell style="endArrow=blockThin;html=1;fontSize=10;fontColor=#404040;strokeWidth=1;endFill=1;strokeColor=#828282;elbow=vertical;metaEdit=1;endSize=14;startSize=14;jumpStyle=arc;jumpSize=16;rounded=0;edgeStyle=orthogonalEdgeStyle;entryX=0;entryY=0.583;entryDx=0;entryDy=0;entryPerimeter=0;exitX=0.167;exitY=1;exitDx=0;exitDy=0;exitPerimeter=0;" edge="1" parent="1" source="MyfmQ-cPh34wAgXyCGul-8" target="fa-pe0VchiflVmFY7Sj_-2">
            <mxGeometry width="240" relative="1" as="geometry">
              <mxPoint x="170" y="880" as="sourcePoint" />
              <mxPoint x="410" y="880" as="targetPoint" />
            </mxGeometry>
          </mxCell>
        </object>
      </root>
    </mxGraphModel>
  </diagram>
</mxfile>
